<svg xmlns="http://www.w3.org/2000/svg" data-name="Layer 1" viewBox="0 0 80 80" id="air-purifier"><rect width="38" height="38" x="21" y="21" fill="#76d1ff" rx="4"></rect><path fill="#5ac0e0" d="M55,21l-7.99.0048A6,6,0,0,1,53,27.0041V53a6,6,0,0,1-6,6h8a3.9989,3.9989,0,0,0,4-4V25A3.9989,3.9989,0,0,0,55,21Z"></path><circle cx="40" cy="40" r="13" fill="#777"></circle><circle cx="40" cy="40" r="4.09" fill="#3a3a3a"></circle><rect width="38" height="38" x="21" y="21" fill="none" stroke="#000" stroke-linecap="round" stroke-linejoin="round" stroke-width="4" rx="4"></rect><circle cx="40" cy="40" r="13" fill="none" stroke="#000" stroke-linecap="round" stroke-linejoin="round" stroke-width="4"></circle><circle cx="40" cy="40" r="4.09" fill="none" stroke="#000" stroke-linecap="round" stroke-linejoin="round" stroke-width="4"></circle><line x1="74" x2="71" y1="42" y2="42" fill="none" stroke="#000" stroke-linecap="round" stroke-linejoin="round" stroke-width="4"></line><line x1="65" x2="58" y1="36" y2="36" fill="none" stroke="#000" stroke-linecap="round" stroke-linejoin="round" stroke-width="4"></line><circle cx="71" cy="36" r="2"></circle><circle cx="65" cy="42" r="2"></circle><circle cx="74" cy="48" r="2"></circle><circle cx="75" cy="30" r="2"></circle><line x1="55" x2="69" y1="30" y2="30" fill="none" stroke="#000" stroke-linecap="round" stroke-linejoin="round" stroke-width="4"></line><line x1="68" x2="57" y1="48" y2="48" fill="none" stroke="#000" stroke-linecap="round" stroke-linejoin="round" stroke-width="4"></line><line x1="15" x2="5" y1="37" y2="37" fill="none" stroke="#000" stroke-linecap="round" stroke-linejoin="round" stroke-width="4"></line><line x1="15" x2="10" y1="49" y2="49" fill="none" stroke="#000" stroke-linecap="round" stroke-linejoin="round" stroke-width="4"></line><line x1="19" x2="8" y1="31" y2="31" fill="none" stroke="#000" stroke-linecap="round" stroke-linejoin="round" stroke-width="4"></line><line x1="19" x2="15" y1="43" y2="43" fill="none" stroke="#000" stroke-linecap="round" stroke-linejoin="round" stroke-width="4"></line><line x1="9" x2="6" y1="43" y2="43" fill="none" stroke="#000" stroke-linecap="round" stroke-linejoin="round" stroke-width="4"></line><path fill="none" stroke="#000" stroke-linejoin="round" stroke-width="4" d="M42.8917 37.1083l.0787-.0131a6.8271 6.8271 0 005.7047-6.7342h0M40 35.9105l.0464-.0649a6.827 6.827 0 00-.728-8.7956h0M37.1083 37.1083l-.0131-.0787a6.8271 6.8271 0 00-6.7342-5.7047h0M35.9105 40l-.0649-.0464a6.827 6.827 0 00-8.7956.728h0M37.1083 42.8917l-.0787.0131a6.8271 6.8271 0 00-5.7047 6.7342h0M40 44.09l-.0464.0649a6.827 6.827 0 00.728 8.7956h0M42.8917 42.8917l.0131.0787a6.8271 6.8271 0 006.7342 5.7047h0M44.09 40l.0649.0464a6.827 6.827 0 008.7956-.728h0"></path></svg>